#!OML:ASF H:\GeneralSubjects\Female5\Project 1\Capture day 1\Session 1\Female5.ASF
:FULLY-SPECIFIED
:DEGREES
1093
root 5.40124 16.4697 -0.50934 130.654 -86.1969 -124.114
lowerback 4.3448 1.60945 1.11585
upperback -12.5244 1.9874 1.31578
thorax -16.4148 0.687948 0.563823
lowerneck -13.673 -0.967725 -1.70131
upperneck 38.7033 -3.35354 1.7548
head 16.1615 -2.02512 0.308784
rclavicle 3.66509e-015 1.70458e-014
rhumerus -19.9188 47.0479 3.98694
rradius 28.0108
rwrist -38.7259
rhand -24.679 -28.7752
rfingers 7.12502
rthumb 1.82161 -58.7472
lclavicle 3.66509e-015 1.70458e-014
lhumerus -14.1744 -18.2248 1.47416
lradius 27.2821
lwrist 11.9654
lhand -28.5237 32.9501
lfingers 7.12502
lthumb -1.89168 -297.079
rfemur 17.4097 37.4759 38.2256
rtibia -14.6184
rfoot 319.264 -37.8355
rtoes 14.8285
lfemur 16.9507 -52.6212 -31.5222
ltibia -7.42884
lfoot -57.525 -0.827146
ltoes -18.1885
1094
root 5.4012 16.4643 -0.518485 128.688 -86.0325 -121.907
lowerback 4.36386 1.60737 1.30657
upperback -12.5892 2.01439 1.39514
thorax -16.5069 0.679914 0.543275
lowerneck -13.7647 -0.953588 -1.6766
upperneck 38.461 -3.31166 1.7978
head 16.0575 -1.98578 0.333453
rclavicle -8.94531e-015 -1.49089e-016
rhumerus -20.1292 47.2191 4.07321
rradius 27.9578
rwrist -38.7813
rhand -24.8888 -28.4444
rfingers 7.12502
rthumb 1.61895 -58.418
lclavicle -8.94531e-015 -1.49089e-016
lhumerus -14.2627 -18.2111 1.39076
lradius 27.3519
lwrist 11.983
lhand -28.7409 33.0451
lfingers 7.12502
lthumb -2.10149 -296.985
rfemur 17.2477 37.5257 38.4251
rtibia -14.8132
rfoot 319.344 -37.9748
rtoes 14.8386
lfemur 16.5998 -52.6688 -30.8726
ltibia -7.56295
lfoot -57.4531 -0.664775
ltoes -18.4286
1095
root 5.40252 16.4645 -0.522804 127.045 -85.9003 -120.03
lowerback 4.41728 1.58614 1.54461
upperback -12.628 2.02237 1.45747
thorax -16.5864 0.656302 0.479754
lowerneck -14.1286 -0.881177 -1.65316
upperneck 38.3837 -3.18437 1.84127
head 16.104 -1.9079 0.369344
rclavicle 4.72114e-015 5.06901e-015
rhumerus -20.473 47.4966 4.13447
rradius 28.1202
rwrist -39.0329
rhand -24.9609 -28.4279
rfingers 7.12502
rthumb 1.54932 -58.4021
lclavicle 4.72114e-015 5.06901e-015
lhumerus -14.5012 -17.9826 1.38133
lradius 27.4684
lwrist 11.9315
lhand -28.6539 33.5148
lfingers 7.12502
lthumb -2.01749 -296.515
rfemur 17.0896 37.5513 38.5379
rtibia -15.0397
rfoot 319.128 -37.7805
rtoes 15.9879
lfemur 16.1983 -52.7272 -30.2593
ltibia -7.69408
lfoot -57.3824 -0.0597245
ltoes -18.9655
1096
root 5.40265 16.4687 -0.525665 126.159 -85.8086 -118.883
lowerback 4.44649 1.59155 1.84539
upperback -12.6794 2.06156 1.42107
thorax -16.6586 0.629754 0.264614
lowerneck -14.2727 -0.960301 -1.83199
upperneck 38.2322 -3.30358 2.05268
head 16.0736 -1.94526 0.472899
rclavicle 1.05356e-014 -2.43511e-015
rhumerus -21.0047 47.5907 3.97864
rradius 28.2418
rwrist -39.0674
rhand -24.6732 -28.0517
rfingers 7.12502
rthumb 1.82719 -58.0236
lclavicle 1.05356e-014 -2.43511e-015
lhumerus -14.5884 -17.5925 1.35631
lradius 27.5442
lwrist 11.87
lhand -28.4845 34.0939
lfingers 7.12502
lthumb -1.85389 -295.934
rfemur 16.8211 37.5993 38.4967
rtibia -15.1759
rfoot 318.882 -37.5091
rtoes 16.9541
lfemur 15.7542 -52.7725 -29.7116
ltibia -7.77841
lfoot -57.3502 0.20506
ltoes -19.2181
1097
root 5.40323 16.4758 -0.530491 127.53 -85.8683 -119.986
lowerback 4.45164 1.61862 1.9235
upperback -12.7343 2.09299 1.31802
thorax -16.724 0.622304 0.0995459
lowerneck -14.2034 -1.06724 -1.91461
upperneck 37.9 -3.42118 2.10745
head 15.893 -1.99022 0.494665
rclavicle -3.44146e-015 -3.84151e-014
rhumerus -21.3681 47.5392 3.66498
rradius 28.0507
rwrist -38.9319
rhand -24.6937 -27.8395
rfingers 7.12502
rthumb 1.80738 -57.8116
lclavicle -3.44146e-015 -3.84151e-014
lhumerus -14.614 -16.4414 1.38993
lradius 27.4764
lwrist 11.1721
lhand -28.187 34.4903
lfingers 7.12502
lthumb -1.56655 -295.536
rfemur 16.5072 37.7033 38.209
rtibia -15.244
rfoot 318.646 -37.2546
rtoes 17.2528
lfemur 15.3474 -52.7617 -29.4172
ltibia -7.87903
lfoot -57.3361 0.2648
ltoes -19.2134
1098
root 5.40646 16.4861 -0.535483 131.107 -86.0703 -123.315
lowerback 4.4925 1.61736 1.67415
upperback -12.7939 2.04933 1.25563
thorax -16.8343 0.625565 0.175617
lowerneck -14.4117 -1.10062 -2.12705
upperneck 37.8749 -3.40082 2.14561
head 15.9356 -2.00029 0.551235
rclavicle 3.95085e-015 4.87022e-015
rhumerus -21.6062 47.7508 3.42864
rradius 27.9577
rwrist -39.0631
rhand -25.0764 -28.1136
rfingers 7.12502
rthumb 1.43775 -58.0885
lclavicle 3.95085e-015 4.87022e-015
lhumerus -14.9202 -15.4775 1.52538
lradius 27.4486
lwrist 10.6187
lhand -28.2831 34.8315
lfingers 7.12502
lthumb -1.65932 -295.195
rfemur 16.2281 37.8299 37.7214
rtibia -15.3118
rfoot 318.585 -37.1812
rtoes 17.4082
lfemur 14.9727 -52.7108 -29.3881
ltibia -7.97683
lfoot -57.3551 0.524138
ltoes -19.4447
1099
root 5.41238 16.4985 -0.539263 134.269 -86.1598 -126.259
lowerback 4.59196 1.59266 1.48147
upperback -12.8605 1.99226 1.2792
thorax -16.9955 0.622471 0.319416
lowerneck -14.5619 -1.05644 -2.04322
upperneck 37.8006 -3.21815 1.84822
head 15.919 -1.94597 0.439766
rclavicle -5.44173e-015 -1.71949e-014
rhumerus -21.8596 48.0745 3.33398
rradius 28.1075
rwrist -39.1914
rhand -25.0685 -27.7425
rfingers 7.12502
rthumb 1.44541 -57.7174
lclavicle -5.44173e-015 -1.71949e-014
lhumerus -15.4826 -15.6568 1.66459
lradius 27.5893
lwrist 11.128
lhand -28.6844 35.1144
lfingers 7.12502
lthumb -2.04687 -294.916
rfemur 15.9619 37.9722 37.3681
rtibia -15.3434
rfoot 318.697 -37.3059
rtoes 17.4285
lfemur 14.6337 -52.6293 -29.3081
ltibia -7.99511
lfoot -57.417 0.911174
ltoes -20.0302
1100
root 5.42175 16.5111 -0.543819 137.19 -86.159 -128.994
lowerback 4.78138 1.59349 1.46096
upperback -12.9171 1.99075 1.25204
thorax -17.1956 0.618559 0.297666
lowerneck -14.5348 -1.0556 -2.13232
upperneck 37.6119 -3.13589 1.78021
head 15.8139 -1.92842 0.443121
rclavicle -1.58034e-014 -3.97569e-014
rhumerus -22.1169 48.2601 3.14704
rradius 28.1622
rwrist -39.2047
rhand -24.6288 -26.8424
rfingers 7.12502
rthumb 1.87012 -56.8139
lclavicle -1.58034e-014 -3.97569e-014
lhumerus -15.8934 -16.0151 1.63731
lradius 27.5801
lwrist 11.691
lhand -28.8564 34.2821
lfingers 7.12502
lthumb -2.21301 -295.75
rfemur 15.7326 38.1515 37.1569
rtibia -15.3517
rfoot 318.69 -37.3461
rtoes 17.3199
lfemur 14.3465 -52.5048 -29.167
ltibia -8.05861
lfoot -57.4472 0.854826
ltoes -20.024
1101
root 5.43399 16.5236 -0.54979 141.304 -86.2305 -132.933
lowerback 4.99235 1.61958 1.3624
upperback -12.9527 2.00886 1.16745
thorax -17.3837 0.630067 0.248979
lowerneck -14.4008 -1.10094 -2.31551
upperneck 37.2673 -3.08014 1.71271
head 15.6085 -1.93231 0.46152
rclavicle -2.48481e-016 2.60408e-014
rhumerus -22.2872 48.3859 2.96901
rradius 28.0852
rwrist -39.2975
rhand -24.3388 -26.4402
rfingers 7.12502
rthumb 2.15017 -56.4091
lclavicle -2.48481e-016 2.60408e-014
lhumerus -15.9684 -15.4686 1.67544
lradius 27.1491
lwrist 11.0679
lhand -28.4979 33.2547
lfingers 7.12502
lthumb -1.86675 -296.774
rfemur 15.5031 38.3259 36.8186
rtibia -15.3852
rfoot 318.693 -37.4104
rtoes 17.4621
lfemur 13.985 -52.392 -29.0758
ltibia -8.11866
lfoot -57.4114 0.622986
ltoes -19.6238
1102
root 5.44588 16.5347 -0.556577 144.699 -86.2598 -136.159
lowerback 5.12202 1.6108 1.17291
upperback -12.9521 1.98313 1.22554
thorax -17.481 0.648642 0.423228
lowerneck -14.3654 -1.10956 -2.63004
upperneck 36.9915 -2.92727 1.63915
head 15.4627 -1.91343 0.515978
rclavicle -1.78906e-015 7.55382e-015
rhumerus -22.0727 48.3212 3.19249
rradius 28.0633
rwrist -39.2234
rhand -24.1276 -26.4494
rfingers 7.12502
rthumb 2.35409 -56.4162
lclavicle -1.78906e-015 7.55382e-015
lhumerus -16.2391 -14.8283 1.92692
lradius 26.807
lwrist 10.3488
lhand -27.7102 33.4006
lfingers 7.12502
lthumb -1.10604 -296.623
rfemur 15.2692 38.4817 36.5278
rtibia -15.4426
rfoot 318.789 -37.6019
rtoes 17.5286
lfemur 13.6745 -52.2886 -28.9478
ltibia -8.17706
lfoot -57.3768 0.757206
ltoes -19.7022
1103
root 5.45855 16.5429 -0.563868 146.071 -86.1785 -137.343
lowerback 5.25356 1.57919 1.15327
upperback -12.9479 1.95575 1.33554
thorax -17.5708 0.648629 0.563014
lowerneck -14.4593 -1.0203 -2.83449
upperneck 36.8307 -2.65041 1.52847
head 15.3985 -1.83141 0.554368
rclavicle -1.43125e-014 1.2921e-014
rhumerus -21.772 48.0412 3.49543
rradius 28.1487
rwrist -38.8975
rhand -23.9164 -26.7278
rfingers 7.12502
rthumb 2.55807 -56.6922
lclavicle -1.43125e-014 1.2921e-014
lhumerus -16.7259 -14.6108 2.08236
lradius 26.8305
lwrist 10.281
lhand -27.1254 33.9581
lfingers 7.12502
lthumb -0.54124 -296.063
rfemur 14.9967 38.6465 36.4156
rtibia -15.4716
rfoot 318.801 -37.6839
rtoes 17.602
lfemur 13.4368 -52.1768 -28.6526
ltibia -8.34412
lfoot -57.3993 0.899861
ltoes -19.7895
1104
root 5.47424 16.5458 -0.569641 146.073 -86.0941 -137.101
lowerback 5.41833 1.55707 1.34445
upperback -12.9754 1.95847 1.35138
thorax -17.7121 0.623721 0.472045
lowerneck -14.6605 -0.943592 -2.80005
upperneck 36.7639 -2.43686 1.32325
head 15.4029 -1.75645 0.497863
rclavicle -3.03147e-015 1.27222e-014
rhumerus -21.7196 47.8793 3.53111
rradius 28.2315
rwrist -38.6575
rhand -23.9423 -27.161
rfingers 7.12502
rthumb 2.53307 -57.1257
lclavicle -3.03147e-015 1.27222e-014
lhumerus -17.0312 -14.467 2.03624
lradius 26.9337
lwrist 10.3851
lhand -26.9398 34.5533
lfingers 7.12502
lthumb -0.361935 -295.467
rfemur 14.6619 38.7782 36.3505
rtibia -15.5101
rfoot 318.696 -37.6228
rtoes 18.1243
lfemur 12.9671 -52.1406 -28.1241
ltibia -8.43078
lfoot -57.4219 1.0705
ltoes -19.7689
1105
root 5.4878 16.5424 -0.572703 145.734 -86.038 -136.489
lowerback 5.49792 1.57737 1.80262
upperback -13.0158 2.02358 1.13127
thorax -17.7909 0.567932 -0.0488078
lowerneck -14.758 -0.996794 -2.9002
upperneck 36.6765 -2.52204 1.46738
head 15.3899 -1.78047 0.562495
rclavicle -5.41688e-015 -5.56597e-015
rhumerus -22.1165 47.856 3.0013
rradius 28.1456
rwrist -38.5929
rhand -24.1947 -27.3768
rfingers 7.12502
rthumb 2.28933 -57.3442
lclavicle -5.41688e-015 -5.56597e-015
lhumerus -16.9836 -14.8856 1.69399
lradius 27.1657
lwrist 10.8661
lhand -26.9685 34.8658
lfingers 7.12502
lthumb -0.389702 -295.155
rfemur 14.3834 38.875 36.3063
rtibia -15.6358
rfoot 318.549 -37.5688
rtoes 18.6529
lfemur 12.4457 -52.152 -27.5831
ltibia -8.48246
lfoot -57.4216 1.12098
ltoes -19.7929
1106
root 5.49879 16.5361 -0.57525 145.885 -85.98 -136.374
lowerback 5.50117 1.59534 2.16627
upperback -13.0239 2.07647 0.953676
thorax -17.7811 0.525069 -0.464932
lowerneck -14.9279 -1.07831 -2.94694
upperneck 36.7066 -2.67162 1.59134
head 15.4532 -1.83004 0.596064
rclavicle -2.78299e-015 -1.04362e-014
rhumerus -22.3716 47.9769 2.55904
rradius 28.0249
rwrist -38.7088
rhand -24.4661 -27.0582
rfingers 7.12502
rthumb 2.0272 -57.0283
lclavicle -2.78299e-015 -1.04362e-014
lhumerus -16.8983 -15.4518 1.46143
lradius 27.2935
lwrist 11.2476
lhand -27.4513 34.0876
lfingers 7.12502
lthumb -0.855936 -295.934
rfemur 14.0996 38.9858 36.1948
rtibia -15.7603
rfoot 318.44 -37.5475
rtoes 18.73
lfemur 12.0134 -52.1307 -27.1277
ltibia -8.59474
lfoot -57.4216 0.855516
ltoes -19.6255
1107
root 5.51182 16.5304 -0.579184 146.224 -85.9317 -136.477
lowerback 5.58782 1.58117 2.24827
upperback -13.0391 2.07471 0.975258
thorax -17.8584 0.51343 -0.487072
lowerneck -15.2857 -1.13698 -3.03628
upperneck 36.8484 -2.65796 1.42891
head 15.6074 -1.85617 0.541267
rclavicle -8.44835e-016 -2.40529e-014
rhumerus -22.1933 48.056 2.61105
rradius 28.0127
rwrist -38.655
rhand -24.5832 -26.7395
rfingers 7.12502
rthumb 1.91409 -56.7106
lclavicle -8.44835e-016 -2.40529e-014
lhumerus -16.9154 -15.8151 1.57588
lradius 27.2015
lwrist 11.3258
lhand -27.874 33.3183
lfingers 7.12502
lthumb -1.26425 -296.706
rfemur 13.7295 39.0911 35.979
rtibia -15.8019
rfoot 318.381 -37.4647
rtoes 18.8989
lfemur 11.5409 -52.103 -26.663
ltibia -8.66076
lfoot -57.4179 0.716099
ltoes -19.5822
